<?xml version="1.0" encoding="iso-8859-1"?>
<!-- Generator: Adobe Illustrator 19.0.0, SVG Export Plug-In . SVG Version: 6.00 Build 0)  -->
<svg version="1.1" id="Layer_1" xmlns="http://www.w3.org/2000/svg" xmlns:xlink="http://www.w3.org/1999/xlink" x="0px" y="0px"
	 viewBox="0 0 512 512" style="enable-background:new 0 0 512 512;" xml:space="preserve">
<circle style="fill:#324A5E;" cx="256" cy="256" r="256"/>
<path style="fill:#2B3B4E;" d="M291.847,509.49c99.637-13.964,180.87-85.268,209.277-179.491L256,84.875l-0.524,210.665
	l-67.053,18.277l54.489,54.489l-43.801,48.449L291.847,509.49z"/>
<circle style="fill:#CFDBE6;" cx="256" cy="350.815" r="18.963"/>
<path style="fill:#B8C9D9;" d="M274.963,350.815c0-10.473-8.49-18.963-18.963-18.963v37.926
	C266.473,369.778,274.963,361.288,274.963,350.815z"/>
<path style="fill:#FFD15D;" d="M206.276,184.323c0-27.462,49.724-99.449,49.724-99.449s49.724,71.987,49.724,99.449
	S283.462,234.048,256,234.048S206.276,211.785,206.276,184.323z"/>
<g>
	<path style="fill:#F9B54C;" d="M305.724,184.323c0-27.457-49.702-99.416-49.724-99.449v149.173
		C283.462,234.048,305.724,211.785,305.724,184.323z"/>
	<path style="fill:#F9B54C;" d="M219.836,197.885c0-19.973,36.164-72.326,36.164-72.326s36.164,52.353,36.164,72.326
		S275.973,234.049,256,234.049S219.836,217.857,219.836,197.885z"/>
</g>
<path style="fill:#F4A200;" d="M292.164,197.885c0-19.97-36.152-72.309-36.162-72.326v108.489
	C275.973,234.048,292.164,217.857,292.164,197.885z"/>
<path style="fill:#31BAFD;" d="M256,341.764L256,341.764c-52.841,0-95.677-42.836-95.677-95.677l0,0h191.354l0,0
	C351.677,298.929,308.841,341.764,256,341.764z"/>
<path style="fill:#2B9ED8;" d="M256,246.088v95.677c52.841,0,95.677-42.836,95.677-95.677l0,0H256z"/>
<path style="fill:#CFDBE6;" d="M355.556,256H156.444c-7.854,0-14.222-6.368-14.222-14.222l0,0c0-7.854,6.368-14.222,14.222-14.222
	h199.111c7.854,0,14.222,6.368,14.222,14.222l0,0C369.778,249.632,363.41,256,355.556,256z"/>
<path style="fill:#B8C9D9;" d="M355.556,227.556H256V256h99.556c7.854,0,14.222-6.368,14.222-14.222S363.41,227.556,355.556,227.556
	z"/>
<path style="fill:#31BAFD;" d="M256,359.865L256,359.865c31.418,0,56.889,25.471,56.889,56.889l0,0H199.111l0,0
	C199.111,385.336,224.582,359.865,256,359.865z"/>
<path style="fill:#2B9ED8;" d="M312.889,416.754c0-31.418-25.469-56.889-56.889-56.889v56.889H312.889L312.889,416.754z"/>
<g>
</g>
<g>
</g>
<g>
</g>
<g>
</g>
<g>
</g>
<g>
</g>
<g>
</g>
<g>
</g>
<g>
</g>
<g>
</g>
<g>
</g>
<g>
</g>
<g>
</g>
<g>
</g>
<g>
</g>
</svg>
