<?xml version="1.0" encoding="iso-8859-1"?>
<!-- Generator: Adobe Illustrator 19.0.0, SVG Export Plug-In . SVG Version: 6.00 Build 0)  -->
<svg version="1.1" id="Layer_1" xmlns="http://www.w3.org/2000/svg" xmlns:xlink="http://www.w3.org/1999/xlink" x="0px" y="0px"
	 viewBox="0 0 512 512" style="enable-background:new 0 0 512 512;" xml:space="preserve">
<circle style="fill:#E6F3FF;" cx="256" cy="256" r="256"/>
<path style="fill:#CFDBE6;" d="M512,256c0-10.012-0.595-19.885-1.714-29.598L398.517,114.631l-8.802,17.175l-63.25-63.25
	L159.832,246.927l-82.849,92.029l51.047,51.048l-11.097,6.215l114.612,114.612c8.051,0.764,16.206,1.169,24.457,1.169
	C397.384,512,512,397.384,512,256z"/>
<path style="fill:#38BAA1;" d="M273.349,212.947l-18.039-39.031c-15.243-32.983-0.862-72.078,32.122-87.323l39.031-18.039
	l18.039,39.031c15.243,32.983,0.862,72.078-32.122,87.323L273.349,212.947z"/>
<path style="fill:#4CDBC4;" d="M188.985,442.294l-18.039-39.031c-15.243-32.983-0.862-72.078,32.122-87.323l39.031-18.039
	l18.039,39.031c15.243,32.983,0.862,72.078-32.122,87.323L188.985,442.294z"/>
<path style="fill:#38BAA1;" d="M300.201,271.051l39.031-18.039c32.983-15.243,72.078-0.862,87.323,32.122l18.039,39.031
	l-39.031,18.039c-32.983,15.243-72.078,0.862-87.323-32.122L300.201,271.051z"/>
<g>
	<path style="fill:#4CDBC4;" d="M70.854,186.685l39.031-18.039c32.983-15.243,72.078-0.862,87.323,32.122l18.039,39.031
		l-39.031,18.039c-32.983,15.243-72.078,0.862-87.323-32.122L70.854,186.685z"/>
	<path style="fill:#4CDBC4;" d="M238.737,214.34l-40.355-14.845c-34.101-12.545-51.578-50.359-39.033-84.459l14.845-40.355
		l40.355,14.845c34.101,12.545,51.578,50.359,39.033,84.459L238.737,214.34z"/>
</g>
<g>
	<path style="fill:#38BAA1;" d="M341.254,436.169l-40.355-14.845c-34.101-12.545-51.578-50.359-39.033-84.459l14.845-40.355
		l40.355,14.845c34.101,12.545,51.578,50.359,39.033,84.459L341.254,436.169z"/>
	<path style="fill:#38BAA1;" d="M298.808,236.437l14.845-40.355c12.545-34.101,50.359-51.578,84.459-39.033l40.355,14.845
		l-14.845,40.355c-12.545,34.101-50.359,51.578-84.459,39.033L298.808,236.437z"/>
</g>
<path style="fill:#4CDBC4;" d="M76.981,338.956l14.845-40.355c12.545-34.101,50.359-51.578,84.459-39.033l40.355,14.845
	l-14.845,40.355c-12.545,34.101-50.359,51.578-84.459,39.033L76.981,338.956z"/>
<g>
	<path style="fill:#C1321F;" d="M257.724,210.165l-30.405-30.405c-25.693-25.693-25.693-67.35,0-93.043l30.405-30.403l30.405,30.405
		c25.693,25.693,25.693,67.35,0,93.043L257.724,210.165z"/>
	<path style="fill:#C1321F;" d="M257.724,454.537l-30.405-30.405c-25.693-25.693-25.693-67.35,0-93.043l30.405-30.405l30.405,30.405
		c25.693,25.693,25.693,67.35,0,93.043L257.724,454.537z"/>
</g>
<g>
	<path style="fill:#A82116;" d="M288.128,86.718l-30.405-30.403l-0.574,0.574v152.702l0.574,0.574l30.405-30.405
		C313.822,154.067,313.822,112.411,288.128,86.718z"/>
	<path style="fill:#A82116;" d="M288.128,331.09l-30.405-30.405l-0.574,0.574v152.704l0.574,0.574l30.405-30.405
		C313.822,398.439,313.822,356.783,288.128,331.09z"/>
	<path style="fill:#A82116;" d="M302.985,255.426l30.405-30.405c25.693-25.693,67.35-25.693,93.043,0l30.403,30.405L426.43,285.83
		c-25.693,25.693-67.35,25.693-93.043,0L302.985,255.426z"/>
</g>
<path style="fill:#C1321F;" d="M58.613,255.426l30.405-30.405c25.693-25.693,67.35-25.693,93.043,0l30.405,30.405L182.06,285.83
	c-25.693,25.693-67.35,25.693-93.043,0L58.613,255.426z"/>
<path style="fill:#F1543F;" d="M225.72,223.422h-42.998c-36.335,0-65.791-29.456-65.791-65.791v-42.998h42.998
	c36.335,0,65.791,29.456,65.791,65.791V223.422z"/>
<g>
	<path style="fill:#C1321F;" d="M398.517,396.217h-42.998c-36.335,0-65.791-29.456-65.791-65.791v-42.998h42.998
		c36.335,0,65.791,29.456,65.791,65.791V396.217z"/>
	<path style="fill:#C1321F;" d="M289.728,223.422v-42.998c0-36.335,29.456-65.791,65.791-65.791h42.998v42.998
		c0,36.335-29.456,65.791-65.791,65.791H289.728z"/>
</g>
<path style="fill:#F1543F;" d="M116.931,396.219v-42.998c0-36.335,29.456-65.791,65.791-65.791h42.998v42.998
	c0,36.335-29.456,65.791-65.791,65.791H116.931z"/>
<circle style="fill:#324A5E;" cx="257.724" cy="255.431" r="113.778"/>
<path style="fill:#2B3B4E;" d="M257.724,141.648c-0.193,0-0.381,0.014-0.574,0.014v227.526c0.193,0.002,0.381,0.014,0.574,0.014
	c62.838,0,113.778-50.94,113.778-113.778S320.562,141.648,257.724,141.648z"/>
<circle style="fill:#F9B54C;" cx="257.724" cy="255.431" r="98.263"/>
<path style="fill:#F4A200;" d="M257.724,157.163c-0.193,0-0.381,0.014-0.574,0.014v196.496c0.193,0.002,0.381,0.014,0.574,0.014
	c54.269,0,98.263-43.994,98.263-98.263S311.992,157.163,257.724,157.163z"/>
<path style="fill:#A82116;" d="M257.724,328.48l-14.565-14.565c-12.307-12.307-12.307-32.261-0.002-44.57l14.567-14.57
	l14.565,14.565c12.307,12.307,12.307,32.261,0.002,44.57L257.724,328.48z"/>
<path style="fill:#D83E20;" d="M257.724,256.076l-14.565-14.565c-12.307-12.307-12.307-32.261-0.002-44.57l14.567-14.57
	l14.565,14.565c12.307,12.307,12.307,32.261,0.002,44.57L257.724,256.076z"/>
<path style="fill:#8E150E;" d="M272.289,269.341l-14.565-14.565l-0.574,0.574v72.556l0.574,0.574l14.567-14.57
	C284.598,301.602,284.596,281.648,272.289,269.341z"/>
<g>
	<path style="fill:#C1321F;" d="M272.289,196.937l-14.565-14.565l-0.574,0.574v72.556l0.574,0.574l14.567-14.57
		C284.598,229.198,284.596,209.244,272.289,196.937z"/>
	<path style="fill:#C1321F;" d="M184.67,255.426l14.565-14.565c12.307-12.307,32.261-12.307,44.57-0.002l14.57,14.567
		l-14.565,14.565c-12.307,12.307-32.261,12.307-44.57,0.002L184.67,255.426z"/>
</g>
<path style="fill:#A82116;" d="M257.074,255.426l14.565-14.565c12.307-12.307,32.261-12.307,44.57-0.002l14.57,14.567
	l-14.565,14.565c-12.307,12.307-32.261,12.307-44.57,0.002L257.074,255.426z"/>
<g>
</g>
<g>
</g>
<g>
</g>
<g>
</g>
<g>
</g>
<g>
</g>
<g>
</g>
<g>
</g>
<g>
</g>
<g>
</g>
<g>
</g>
<g>
</g>
<g>
</g>
<g>
</g>
<g>
</g>
</svg>
