<?xml version="1.0" encoding="iso-8859-1"?>
<!-- Generator: Adobe Illustrator 19.0.0, SVG Export Plug-In . SVG Version: 6.00 Build 0)  -->
<svg version="1.1" id="Layer_1" xmlns="http://www.w3.org/2000/svg" xmlns:xlink="http://www.w3.org/1999/xlink" x="0px" y="0px"
	 viewBox="0 0 512 512" style="enable-background:new 0 0 512 512;" xml:space="preserve">
<circle style="fill:#B5F1F4;" cx="256" cy="256" r="256"/>
<path style="fill:#84DBFF;" d="M437.019,437.019c46.301-46.301,71.14-105.924,74.555-166.529L382.283,141.198l-183.315-29.861
	l-95.677,105.875l32.253,159.687l134.692,134.692C330.928,508.232,390.654,483.385,437.019,437.019z"/>
<g>
	<path style="fill:#324A5E;" d="M256,85.333c-94.256,0-170.665,76.41-170.667,170.668c-0.002,94.258,76.409,170.667,170.665,170.665
		c94.256,0,170.667-76.41,170.667-170.667C426.665,161.742,350.255,85.333,256,85.333z M349.456,168.581l-37.514,31.479
		l31.478-37.516C345.498,164.49,347.51,166.502,349.456,168.581z M255.998,127.998c1.433,0,2.848,0.062,4.268,0.109L256,176.883
		l-4.267-48.776C253.152,128.059,254.567,127.998,255.998,127.998z M168.579,162.542l31.48,37.517l-37.517-31.48
		C164.488,166.5,166.5,164.488,168.579,162.542z M127.998,256c0-1.431,0.062-2.848,0.109-4.268l48.774,4.267l-48.774,4.267
		C128.059,258.848,127.998,257.431,127.998,256z M162.542,343.421l37.523-31.485l-31.484,37.523
		C166.502,347.514,164.488,345.5,162.542,343.421z M255.998,384.002c-1.429,0-2.844-0.062-4.263-0.109l4.267-48.766l4.267,48.766
		C258.846,383.94,257.429,384.002,255.998,384.002z M343.419,349.455l-31.478-37.514l37.514,31.479
		C347.51,345.497,345.498,347.51,343.419,349.455z M358.341,332.874l-60.649-50.89c-3.97,6.358-9.352,11.738-15.708,15.708
		l50.891,60.649c-16.868,12.691-36.981,21.289-58.866,24.373l-6.899-78.86c-3.572,0.826-7.287,1.277-11.109,1.277
		s-7.537-0.45-11.107-1.276l-6.899,78.86c-21.887-3.082-42-11.678-58.868-24.371l50.891-60.652c-6.358-3.97-11.74-9.352-15.71-15.71
		l-60.65,50.893c-12.691-16.87-21.289-36.981-24.371-58.868l78.862-6.899c-0.826-3.572-1.277-7.287-1.277-11.109
		s0.45-7.537,1.277-11.109l-78.862-6.899c3.084-21.887,11.679-41.998,24.373-58.868l60.65,50.891
		c3.97-6.358,9.352-11.738,15.708-15.71l-50.893-60.65c16.87-12.691,36.983-21.289,58.868-24.373l6.899,78.862
		c3.572-0.826,7.287-1.277,11.109-1.277c3.824,0,7.539,0.452,11.109,1.277l6.899-78.862c21.885,3.084,41.998,11.679,58.866,24.373
		l-50.891,60.65c6.358,3.97,11.738,9.352,15.708,15.708l60.649-50.891c12.691,16.87,21.287,36.981,24.371,58.866l-78.858,6.899
		c0.826,3.572,1.277,7.287,1.277,11.109s-0.452,7.539-1.277,11.109l78.858,6.899C379.628,295.893,371.033,316.006,358.341,332.874z
		 M335.119,256l48.773-4.267c0.047,1.419,0.109,2.836,0.109,4.265c0,1.431-0.062,2.848-0.109,4.268L335.119,256z"/>
	<circle style="fill:#324A5E;" cx="256" cy="256" r="35.34"/>
</g>
<g>
	<path style="fill:#2B3B4E;" d="M426.665,255.998c0-94.256-76.409-170.665-170.663-170.665v42.665c1.431,0,2.848,0.06,4.267,0.109
		l-4.267,48.771v29.991c3.824,0,7.537,0.452,11.109,1.277l6.899-78.862c21.885,3.084,41.998,11.679,58.866,24.373l-50.891,60.65
		c6.358,3.97,11.738,9.352,15.708,15.708l60.649-50.891c12.691,16.87,21.287,36.981,24.371,58.866l-78.858,6.899
		c0.826,3.572,1.277,7.287,1.277,11.109c0,3.822-0.452,7.539-1.277,11.109l78.858,6.899c-3.084,21.885-11.679,41.996-24.371,58.866
		l-60.649-50.89c-3.97,6.358-9.352,11.738-15.708,15.708l50.891,60.649c-16.868,12.691-36.981,21.289-58.866,24.373l-6.899-78.86
		c-3.572,0.826-7.285,1.277-11.109,1.277v29.999v-0.003l4.267,48.766c-1.419,0.047-2.836,0.109-4.267,0.109v42.667
		C350.256,426.663,426.663,350.255,426.665,255.998z M311.941,200.059l31.479-37.516c2.079,1.945,4.091,3.958,6.035,6.037
		L311.941,200.059z M335.119,256l48.773-4.267c0.047,1.419,0.109,2.836,0.109,4.265c0,1.431-0.062,2.848-0.109,4.268L335.119,256z
		 M343.419,349.455l-31.478-37.514l37.514,31.479C347.51,345.497,345.498,347.51,343.419,349.455z"/>
	<path style="fill:#2B3B4E;" d="M291.34,256c0-19.518-15.822-35.34-35.34-35.34v70.68C275.518,291.34,291.34,275.518,291.34,256z"/>
</g>
<g>
</g>
<g>
</g>
<g>
</g>
<g>
</g>
<g>
</g>
<g>
</g>
<g>
</g>
<g>
</g>
<g>
</g>
<g>
</g>
<g>
</g>
<g>
</g>
<g>
</g>
<g>
</g>
<g>
</g>
</svg>
