<?xml version="1.0" encoding="iso-8859-1"?>
<!-- Generator: Adobe Illustrator 19.0.0, SVG Export Plug-In . SVG Version: 6.00 Build 0)  -->
<svg version="1.1" id="Layer_1" xmlns="http://www.w3.org/2000/svg" xmlns:xlink="http://www.w3.org/1999/xlink" x="0px" y="0px"
	 viewBox="0 0 512 512" style="enable-background:new 0 0 512 512;" xml:space="preserve">
<circle style="fill:#935635;" cx="256" cy="256" r="256"/>
<path style="fill:#804000;" d="M507.894,301.882L387.16,181.148l-18.825,43.946l-70.592-70.592l-60.125,85.983l-59.337-59.337
	l-29.449,41.812l102.457,102.457L97.401,398.222L206.35,507.171C222.413,510.33,239.011,512,256,512
	C381.723,512,486.271,421.371,507.894,301.882z"/>
<path style="fill:#E5B88F;" d="M256,126.707c0,0-56.889,25.471-56.889,56.889c0,7.792,1.57,15.217,4.406,21.98v34.909h104.965
	v-34.909c2.836-6.763,4.406-14.188,4.406-21.98C312.889,152.178,256,126.707,256,126.707z"/>
<path style="fill:#FED8B2;" d="M312.889,183.596c0-31.418-56.889-56.889-56.889-56.889s-56.889,25.471-56.889,56.889
	c0,7.792,1.57,15.217,4.406,21.98h104.965C311.318,198.813,312.889,191.388,312.889,183.596z"/>
<path style="fill:#F4BD8C;" d="M312.889,183.596c0-31.416-56.877-56.884-56.889-56.889v78.869h52.483
	C311.318,198.813,312.889,191.388,312.889,183.596z"/>
<rect x="203.524" y="205.576" style="fill:#E5B88F;" width="104.965" height="34.909"/>
<rect x="256" y="205.576" style="fill:#C69A75;" width="52.483" height="34.909"/>
<path style="fill:#FED8B2;" d="M189.342,201.697c0-21.421-38.788-38.788-38.788-38.788s-38.788,17.367-38.788,38.788
	c0,5.313,1.071,10.376,3.005,14.986h71.568C188.271,212.073,189.342,207.01,189.342,201.697z"/>
<rect x="114.778" y="216.678" style="fill:#E5B88F;" width="71.568" height="23.802"/>
<path style="fill:#F4BD8C;" d="M398.222,201.697c0-21.421-38.788-38.788-38.788-38.788s-38.788,17.367-38.788,38.788
	c0,5.313,1.071,10.376,3.005,14.986h71.568C397.152,212.073,398.222,207.01,398.222,201.697z"/>
<rect x="323.646" y="216.678" style="fill:#C69A75;" width="71.568" height="23.802"/>
<rect x="97.401" y="227.556" style="fill:#F4E3C3;" width="317.199" height="170.667"/>
<rect x="256" y="227.556" style="fill:#FED8B2;" width="158.599" height="170.667"/>
<path style="fill:#E5B88F;" d="M292.978,398.222h-73.956V287.289c0-20.421,16.555-36.978,36.978-36.978l0,0
	c20.421,0,36.978,16.555,36.978,36.978V398.222z"/>
<path style="fill:#C69A75;" d="M292.978,287.289c0-20.421-16.555-36.978-36.978-36.978v147.911h36.978V287.289z"/>
<g>
	<path style="fill:#E5B88F;" d="M172.172,385h-43.236v-36.409c0-11.94,9.678-21.618,21.618-21.618l0,0
		c11.94,0,21.618,9.678,21.618,21.618V385z"/>
	<path style="fill:#E5B88F;" d="M172.172,312.889h-43.236V276.48c0-11.94,9.678-21.618,21.618-21.618l0,0
		c11.94,0,21.618,9.678,21.618,21.618V312.889z"/>
</g>
<g>
	<path style="fill:#C69A75;" d="M381.052,385h-43.236v-36.409c0-11.94,9.678-21.618,21.618-21.618l0,0
		c11.94,0,21.618,9.678,21.618,21.618L381.052,385L381.052,385z"/>
	<path style="fill:#C69A75;" d="M381.052,312.889h-43.236V276.48c0-11.94,9.678-21.618,21.618-21.618l0,0
		c11.94,0,21.618,9.678,21.618,21.618L381.052,312.889L381.052,312.889z"/>
</g>
<g>
</g>
<g>
</g>
<g>
</g>
<g>
</g>
<g>
</g>
<g>
</g>
<g>
</g>
<g>
</g>
<g>
</g>
<g>
</g>
<g>
</g>
<g>
</g>
<g>
</g>
<g>
</g>
<g>
</g>
</svg>
