<?xml version="1.0" encoding="iso-8859-1"?>
<!-- Generator: Adobe Illustrator 19.0.0, SVG Export Plug-In . SVG Version: 6.00 Build 0)  -->
<svg version="1.1" id="Layer_1" xmlns="http://www.w3.org/2000/svg" xmlns:xlink="http://www.w3.org/1999/xlink" x="0px" y="0px"
	 viewBox="0 0 512 512" style="enable-background:new 0 0 512 512;" xml:space="preserve">
<circle style="fill:#324A5E;" cx="256" cy="256" r="256"/>
<path style="fill:#2B3B4E;" d="M291.878,509.483c110.878-15.553,198.963-102.121,216.8-212.251l-117.351-117.35l-12.774,11.593
	l-56.554-56.554l-151.54,181.205l0.152,0.152l-19.825,20.502l104.27,104.272l-18.229,13.381L291.878,509.483z"/>
<circle style="fill:#FFD15D;" cx="256" cy="211.178" r="100.848"/>
<path style="fill:#F9B54C;" d="M356.848,211.177c0-55.698-45.151-100.848-100.848-100.848v201.697
	C311.696,312.025,356.848,266.874,356.848,211.177z"/>
<path style="fill:#CFDBE6;" d="M194.272,192.752c0,0-25.979-35.125-61.726-20.575s-3.741,46.139,0,82.303
	c3.741,36.164,1.662,148.394,82.303,41.151L194.272,192.752z"/>
<path style="fill:#B8C9D9;" d="M317.726,192.752c0,0,25.979-35.125,61.726-20.575s3.741,46.139,0,82.303
	s-1.662,148.394-82.303,41.151L317.726,192.752z"/>
<path style="fill:#E6F3FF;" d="M332.69,225.642c0-42.355-34.335-76.691-76.691-76.691s-76.691,34.335-76.691,76.691
	c0,25.826,12.766,62.919,32.33,87.94c12.969,16.587,20.404,36.828,21.904,57.83l3.282,83.022h38.345l3.282-83.022
	c1.5-21.002,8.935-41.243,21.904-57.83C319.924,288.561,332.69,251.466,332.69,225.642z"/>
<g>
	<path style="fill:#CFDBE6;" d="M256,148.951v305.483h19.173l3.282-83.022c1.5-21.002,8.935-41.243,21.906-57.83
		c19.565-25.022,32.33-62.116,32.33-87.94C332.69,183.287,298.355,148.951,256,148.951z"/>
	<rect x="234.175" y="302.804" style="fill:#CFDBE6;" width="43.646" height="6.235"/>
	<rect x="234.175" y="316.199" style="fill:#CFDBE6;" width="43.646" height="6.235"/>
	<rect x="234.175" y="330.542" style="fill:#CFDBE6;" width="43.646" height="6.235"/>
</g>
<g>
	<rect x="256" y="302.804" style="fill:#B8C9D9;" width="21.823" height="6.235"/>
	<rect x="256" y="316.199" style="fill:#B8C9D9;" width="21.823" height="6.235"/>
	<rect x="256" y="330.542" style="fill:#B8C9D9;" width="21.823" height="6.235"/>
</g>
<circle style="fill:#FD8469;" cx="256" cy="254.483" r="9.481"/>
<path style="fill:#FC6F58;" d="M265.481,254.48c0-5.237-4.244-9.481-9.481-9.481v18.963
	C261.236,263.961,265.481,259.715,265.481,254.48z"/>
<g>
	<circle style="fill:#324A5E;" cx="225.142" cy="268.826" r="6.235"/>
	<circle style="fill:#324A5E;" cx="290.909" cy="268.826" r="6.235"/>
</g>
<path style="fill:#FD8469;" d="M256,148.951c-24.628,0-46.526,11.621-60.559,29.665c21.976,8.132,53.653,24.879,60.559,55.287
	c6.904-30.408,38.581-47.156,60.559-55.287C302.526,160.571,280.626,148.951,256,148.951z"/>
<g>
	<path style="fill:#FC6F58;" d="M316.559,178.616c-14.031-18.044-35.931-29.665-60.559-29.665v84.951
		C262.906,203.493,294.581,186.747,316.559,178.616z"/>
	<path style="fill:#FC6F58;" d="M256,148.951c-17.187,0-33.037,5.673-45.821,15.227c17.268,6.727,40.572,19.88,45.821,42.998
		c5.249-23.118,28.551-36.271,45.821-42.998C289.037,154.624,273.187,148.951,256,148.951z"/>
</g>
<path style="fill:#F1543F;" d="M301.82,164.178c-12.783-9.554-28.632-15.227-45.82-15.227v58.223
	C261.249,184.058,284.551,170.905,301.82,164.178z"/>
<path style="fill:#FFD15D;" d="M237.918,190.933c0-9.987,18.082-33.149,18.082-33.149s18.082,23.164,18.082,33.149
	c0,9.987-8.095,18.082-18.082,18.082C246.013,209.015,237.918,200.919,237.918,190.933z"/>
<path style="fill:#F9B54C;" d="M274.08,190.933c0-9.983-18.072-33.137-18.082-33.149v51.231
	C265.987,209.015,274.08,200.919,274.08,190.933z"/>
<g>
</g>
<g>
</g>
<g>
</g>
<g>
</g>
<g>
</g>
<g>
</g>
<g>
</g>
<g>
</g>
<g>
</g>
<g>
</g>
<g>
</g>
<g>
</g>
<g>
</g>
<g>
</g>
<g>
</g>
</svg>
