<?xml version="1.0" encoding="iso-8859-1"?>
<!-- Generator: Adobe Illustrator 19.0.0, SVG Export Plug-In . SVG Version: 6.00 Build 0)  -->
<svg version="1.1" id="Layer_1" xmlns="http://www.w3.org/2000/svg" xmlns:xlink="http://www.w3.org/1999/xlink" x="0px" y="0px"
	 viewBox="0 0 512 512" style="enable-background:new 0 0 512 512;" xml:space="preserve">
<circle style="fill:#E6F3FF;" cx="256" cy="256" r="256"/>
<path style="fill:#CFDBE6;" d="M510.535,283.424L369.273,142.162l-21.064,35.421L251.956,81.33l-84.882,142.058l-13.748,43.305
	l29.36,29.36l-11.157,3.044l30.818,30.818l-7.546,125.195l56.834,56.834c1.453,0.024,2.907,0.055,4.365,0.055
	C388.118,512,496.85,411.912,510.535,283.424z"/>
<rect x="194.801" y="284.444" style="fill:#324A5E;" width="8.62" height="170.667"/>
<rect x="198.542" y="284.444" style="fill:#2B3B4E;" width="4.884" height="170.667"/>
<rect x="308.579" y="341.333" style="fill:#324A5E;" width="8.62" height="113.778"/>
<rect x="312.32" y="341.333" style="fill:#2B3B4E;" width="4.884" height="113.778"/>
<polygon style="fill:#F4A200;" points="171.529,299.098 199.111,271.515 226.694,299.098 "/>
<polygon style="fill:#D68900;" points="199.111,271.515 198.537,272.089 198.537,299.098 226.694,299.098 "/>
<polygon style="fill:#66B31B;" points="285.306,357.71 312.889,330.128 340.471,357.71 "/>
<polygon style="fill:#599B13;" points="312.889,330.128 312.315,330.702 312.315,357.71 340.471,357.71 "/>
<ellipse style="fill:#F9B54C;" cx="199.111" cy="170.667" rx="85.333" ry="113.778"/>
<path style="fill:#F4A200;" d="M199.111,56.889c-0.193,0-0.381,0.017-0.574,0.019v227.518c0.193,0.002,0.381,0.019,0.574,0.019
	c47.128,0,85.333-50.94,85.333-113.778S246.239,56.889,199.111,56.889z"/>
<ellipse style="fill:#79D720;" cx="312.889" cy="227.556" rx="85.333" ry="113.778"/>
<path style="fill:#66B31B;" d="M312.889,113.778c-0.193,0-0.381,0.017-0.574,0.019v227.518c0.193,0.002,0.381,0.019,0.574,0.019
	c47.128,0,85.333-50.94,85.333-113.778S360.017,113.778,312.889,113.778z"/>
<g>
</g>
<g>
</g>
<g>
</g>
<g>
</g>
<g>
</g>
<g>
</g>
<g>
</g>
<g>
</g>
<g>
</g>
<g>
</g>
<g>
</g>
<g>
</g>
<g>
</g>
<g>
</g>
<g>
</g>
</svg>
