<?xml version="1.0" encoding="iso-8859-1"?>
<!-- Generator: Adobe Illustrator 19.0.0, SVG Export Plug-In . SVG Version: 6.00 Build 0)  -->
<svg version="1.1" id="Layer_1" xmlns="http://www.w3.org/2000/svg" xmlns:xlink="http://www.w3.org/1999/xlink" x="0px" y="0px"
	 viewBox="0 0 512 512" style="enable-background:new 0 0 512 512;" xml:space="preserve">
<circle style="fill:#E6F3FF;" cx="256" cy="256" r="256"/>
<path style="fill:#CFDBE6;" d="M512,256c0-4.01-0.105-7.994-0.286-11.959L391.249,123.576l-25.247,31.641l-31.641-31.641
	l-9.692,6.291l34.24,34.24l-18.154,22.754l-63.285-63.285l-9.835,11.607l63.604,63.604l-15.731,19.716l-94.927-94.927
	l-13.195,10.831l97.458,97.458l-14.567,18.258L161.147,120.992l-23.521,16.632l-16.077,24.123l133.07,133.07l-14.734,18.466
	c-33.595-33.837-101.397-100.669-101.397-100.669l-16.531,6.482l107.663,107.048l-10.716,13.431l-76.683-76.679l-22.202,10.878
	l77.274,77.274l-7.802,3.941l-47.27-47.271l-22.202,22.943l39.476,39.476l-37.948,19.166L243.955,511.71
	c3.993,0.184,8.006,0.29,12.045,0.29C397.384,512,512,397.386,512,256z"/>
<g>
	<circle style="fill:#FF6472;" cx="142.222" cy="142.222" r="28.444"/>
	<circle style="fill:#FF6472;" cx="142.222" cy="369.778" r="28.444"/>
</g>
<circle style="fill:#C75163;" cx="369.778" cy="142.222" r="28.444"/>
<circle style="fill:#FC6F58;" cx="312.889" cy="142.222" r="28.444"/>
<g>
	<circle style="fill:#FD8469;" cx="256" cy="142.222" r="28.444"/>
	<circle style="fill:#FD8469;" cx="199.111" cy="142.222" r="28.444"/>
</g>
<circle style="fill:#FC6F58;" cx="312.889" cy="369.778" r="28.444"/>
<circle style="fill:#FD8469;" cx="256" cy="369.778" r="28.444"/>
<g>
	<path style="fill:#FC6F58;" d="M256,113.778c-0.048,0-0.095,0.007-0.143,0.007v56.875c0.048,0,0.095,0.007,0.143,0.007
		c15.71,0,28.444-12.734,28.444-28.444S271.71,113.778,256,113.778z"/>
	<path style="fill:#FC6F58;" d="M256,341.333c-0.048,0-0.095,0.007-0.143,0.007v56.875c0.048,0,0.095,0.007,0.143,0.007
		c15.71,0,28.444-12.734,28.444-28.444S271.71,341.333,256,341.333z"/>
</g>
<circle style="fill:#FD8469;" cx="199.111" cy="369.778" r="28.444"/>
<g>
	<circle style="fill:#FC6F58;" cx="369.778" cy="312.889" r="28.444"/>
	<circle style="fill:#FC6F58;" cx="369.778" cy="256" r="28.444"/>
	<circle style="fill:#FC6F58;" cx="369.778" cy="199.111" r="28.444"/>
</g>
<g>
	<circle style="fill:#FD8469;" cx="142.222" cy="312.889" r="28.444"/>
	<circle style="fill:#FD8469;" cx="142.222" cy="256" r="28.444"/>
	<circle style="fill:#FD8469;" cx="142.222" cy="199.111" r="28.444"/>
</g>
<circle style="fill:#C75163;" cx="369.778" cy="369.778" r="28.444"/>
<rect x="142.222" y="142.222" style="fill:#FC6F58;" width="113.635" height="227.556"/>
<rect x="255.862" y="142.222" style="fill:#F1543F;" width="113.916" height="227.556"/>
<rect x="175.546" y="175.544" transform="matrix(-0.7071 -0.7071 0.7071 -0.7071 256.0016 618.0348)" style="fill:#FFD15D;" width="160.908" height="160.908"/>
<polygon style="fill:#F9B54C;" points="369.778,256.002 256,142.222 255.857,142.365 255.857,369.635 256,369.778 "/>
<polygon style="fill:#324A5E;" points="142.222,142.222 142.222,208.88 208.88,142.222 "/>
<g>
	<polygon style="fill:#2B3B4E;" points="369.778,142.222 303.12,142.222 369.778,208.88 	"/>
	<polygon style="fill:#2B3B4E;" points="369.778,369.778 369.778,303.12 303.12,369.778 	"/>
</g>
<polygon style="fill:#324A5E;" points="142.222,369.778 208.88,369.778 142.222,303.12 "/>
<g>
	<circle style="fill:#C1321F;" cx="199.111" cy="199.111" r="28.444"/>
	<circle style="fill:#C1321F;" cx="199.111" cy="312.889" r="28.444"/>
</g>
<circle style="fill:#A82116;" cx="312.889" cy="199.111" r="28.444"/>
<circle style="fill:#31BAFD;" cx="256" cy="256" r="37.926"/>
<path style="fill:#2B9ED8;" d="M256,218.074c-0.048,0-0.095,0.003-0.143,0.003v75.845c0.048,0,0.095,0.003,0.143,0.003
	c20.945,0,37.926-16.98,37.926-37.926S276.945,218.074,256,218.074z"/>
<circle style="fill:#A82116;" cx="312.889" cy="312.889" r="28.444"/>
<g>
</g>
<g>
</g>
<g>
</g>
<g>
</g>
<g>
</g>
<g>
</g>
<g>
</g>
<g>
</g>
<g>
</g>
<g>
</g>
<g>
</g>
<g>
</g>
<g>
</g>
<g>
</g>
<g>
</g>
</svg>
